<svg xmlns="http://www.w3.org/2000/svg" viewBox="0 0 1024 1024" width="1024" height="1024">
  <!-- Background -->
  <rect width="1024" height="1024" rx="216" ry="216" fill="#18181B"/>

  <!-- Side-view Anvil with horn, face, heel, waist, and base -->
  <path d="
    M 296,212
    L 764,212
    L 764,302
    L 836,302
    L 836,392
    L 714,434
    L 714,560
    L 836,590
    L 836,782
    Q 836,812 800,812
    L 224,812
    Q 188,812 188,782
    L 188,590
    L 354,560
    L 354,434
    L 296,392
    L 296,344
    C 224,344 174,308 152,278
    C 174,248 224,212 296,212
    Z
  " fill="#FAFAFA"/>

  <!-- Spark 1 (large) -->
  <path d="M 534,122 L 540,146 L 564,152 L 540,158 L 534,182 L 528,158 L 504,152 L 528,146 Z" fill="#F97316"/>

  <!-- Spark 2 (medium) -->
  <path d="M 694,92 L 698,112 L 718,116 L 698,120 L 694,140 L 690,120 L 670,116 L 690,112 Z" fill="#FB923C"/>

  <!-- Spark 3 (small) -->
  <path d="M 614,172 L 617,183 L 628,186 L 617,189 L 614,200 L 611,189 L 600,186 L 611,183 Z" fill="#FDBA74"/>
</svg>
